<svg xmlns="http://www.w3.org/2000/svg" width="240" height="120" font-family="Arial" font-size="12" stroke="black" fill="none">
  <g transform="translate(0,0)">
    <text x="20" y="15">Eclipsée</text>
    <circle cx="40" cy="60" r="20"/>
    <line x1="40" y1="60" x2="40" y2="30"/>
    <text x="35" y="25">H</text>
    <line x1="40" y1="60" x2="60" y2="80"/>
    <text x="65" y="85">H</text>
    <line x1="40" y1="60" x2="20" y2="80"/>
    <text x="10" y="85">H</text>
    <line x1="40" y1="60" x2="40" y2="30" stroke-dasharray="3,3"/>
    <line x1="40" y1="60" x2="60" y2="80" stroke-dasharray="3,3"/>
    <line x1="40" y1="60" x2="20" y2="80" stroke-dasharray="3,3"/>
  </g>
  <g transform="translate(120,0)">
    <text x="20" y="15">Décalée</text>
    <circle cx="40" cy="60" r="20"/>
    <line x1="40" y1="60" x2="40" y2="30"/>
    <text x="35" y="25">H</text>
    <line x1="40" y1="60" x2="60" y2="80"/>
    <text x="65" y="85">H</text>
    <line x1="40" y1="60" x2="20" y2="80"/>
    <text x="10" y="85">H</text>
    <line x1="40" y1="60" x2="60" y2="40" stroke-dasharray="3,3"/>
    <line x1="40" y1="60" x2="40" y2="90" stroke-dasharray="3,3"/>
    <line x1="40" y1="60" x2="20" y2="40" stroke-dasharray="3,3"/>
  </g>
</svg>
